{
  "accessors": [
    {
      "bufferView": 2,
      "componentType": 5126,
      "count": 240,
      "max": [
        0.8831689953804016,
        0.8443693518638611,
        0.978853702545166
      ],
      "min": [
        -0.8831689953804016,
        -0.8443693518638611,
        -0.978853702545166
      ],
      "type": "VEC3"
    },
    {
      "bufferView": 2,
      "byteOffset": 2880,
      "componentType": 5126,
      "count": 240,
      "max": [
        0.9997173547744751,
        0.9891342520713806,
        1.0
      ],
      "min": [
        -0.9997173547744751,
        -0.9891342520713806,
        -1.0
      ],
      "type": "VEC3"
    },
    {
      "bufferView": 3,
      "componentType": 5126,
      "count": 240,
      "max": [
        0.9091053605079651,
        0.9999998211860657,
        0.8986519575119019,
        1.0
      ],
      "min": [
        -0.9969820976257324,
        -0.8713758587837219,
        -0.8971402645111084,
        1.0
      ],
      "type": "VEC4"
    },
    {
      "bufferView": 1,
      "componentType": 5126,
      "count": 240,
      "max": [
        0.9943795204162598,
        0.9808288812637329
      ],
      "min": [
        0.017955180257558823,
        0.014076068066060543
      ],
      "type": "VEC2"
    },
    {
      "bufferView": 1,
      "byteOffset": 1920,
      "componentType": 5126,
      "count": 240,
      "max": [
        0.9943795204162598,
        0.9808288812637329
      ],
      "min": [
        0.017955180257558823,
        0.014076068066060543
      ],
      "type": "VEC2"
    },
    {
      "bufferView": 0,
      "componentType": 5125,
      "count": 780,
      "type": "SCALAR"
    }
  ],
  "asset": {
    "extras": {
      "author": "katrin.jets (https://sketchfab.com/katrin.jets)",
      "license": "CC-BY-4.0 (http://creativecommons.org/licenses/by/4.0/)",
      "source": "https://sketchfab.com/3d-models/set-d20-8-a67d59d2fb7f42d8b3f65b59429dc6da",
      "title": "set_d20_8"
    },
    "generator": "Sketchfab-13.8.0",
    "version": "2.0"
  },
  "bufferViews": [
    {
      "buffer": 0,
      "byteLength": 3120,
      "name": "floatBufferViews",
      "target": 34963
    },
    {
      "buffer": 0,
      "byteLength": 3840,
      "byteOffset": 3120,
      "byteStride": 8,
      "name": "floatBufferViews",
      "target": 34962
    },
    {
      "buffer": 0,
      "byteLength": 5760,
      "byteOffset": 6960,
      "byteStride": 12,
      "name": "floatBufferViews",
      "target": 34962
    },
    {
      "buffer": 0,
      "byteLength": 3840,
      "byteOffset": 12720,
      "byteStride": 16,
      "name": "floatBufferViews",
      "target": 34962
    }
  ],
  "buffers": [
    {
      "byteLength": 16560,
      "uri": "scene.bin"
    }
  ],
  "images": [
    {
      "uri": "textures/pastelne_materjal_baseColor.png"
    },
    {
      "uri": "textures/pastelne_materjal_metallicRoughness.png"
    },
    {
      "uri": "textures/pastelne_materjal_emissive.png"
    },
    {
      "uri": "textures/pastelne_materjal_normal.png"
    }
  ],
  "materials": [
    {
      "doubleSided": true,
      "emissiveFactor": [
        1.0,
        1.0,
        1.0
      ],
      "emissiveTexture": {
        "index": 2
      },
      "name": "pastelne_materjal",
      "normalTexture": {
        "index": 3
      },
      "pbrMetallicRoughness": {
        "baseColorTexture": {
          "index": 0
        },
        "metallicFactor": 0.0,
        "metallicRoughnessTexture": {
          "index": 1
        }
      }
    }
  ],
  "meshes": [
    {
      "name": "d20.001_pastelne_materjal_0",
      "primitives": [
        {
          "attributes": {
            "NORMAL": 1,
            "POSITION": 0,
            "TANGENT": 2,
            "TEXCOORD_0": 3,
            "TEXCOORD_1": 4
          },
          "indices": 5,
          "material": 0,
          "mode": 4
        }
      ]
    }
  ],
  "nodes": [
    {
      "children": [
        1
      ],
      "matrix": [
        1.0,
        0.0,
        0.0,
        0.0,
        0.0,
        2.220446049250313e-16,
        -1.0,
        0.0,
        0.0,
        1.0,
        2.220446049250313e-16,
        0.0,
        0.0,
        0.0,
        0.0,
        1.0
      ],
      "name": "Sketchfab_model"
    },
    {
      "children": [
        2
      ],
      "matrix": [
        0.009999999776482582,
        0.0,
        0.0,
        0.0,
        0.0,
        0.0,
        0.009999999776482582,
        0.0,
        0.0,
        -0.009999999776482582,
        0.0,
        0.0,
        0.0,
        0.0,
        0.0,
        1.0
      ],
      "name": "76dc07cee7814ebc90ee6a3937e80d94.fbx"
    },
    {
      "children": [
        3
      ],
      "name": "RootNode"
    },
    {
      "children": [
        4
      ],
      "matrix": [
        1.1012135744094849,
        0.0,
        0.0,
        0.0,
        -0.0,
        -1.7941046369830037e-07,
        -1.1012135744094702,
        0.0,
        0.0,
        1.1012135744094702,
        -1.7941046369830037e-07,
        0.0,
        -7.287528991699219,
        0.0,
        -12.97803783416748,
        1.0
      ],
      "name": "d20.001"
    },
    {
      "mesh": 0,
      "name": "d20.001_pastelne_materjal_0"
    }
  ],
  "samplers": [
    {
      "magFilter": 9729,
      "minFilter": 9987,
      "wrapS": 10497,
      "wrapT": 10497
    }
  ],
  "scene": 0,
  "scenes": [
    {
      "name": "Sketchfab_Scene",
      "nodes": [
        0
      ]
    }
  ],
  "textures": [
    {
      "sampler": 0,
      "source": 0
    },
    {
      "sampler": 0,
      "source": 1
    },
    {
      "sampler": 0,
      "source": 2
    },
    {
      "sampler": 0,
      "source": 3
    }
  ]
}
