{
  "accessors": [
    {
      "bufferView": 2,
      "componentType": 5126,
      "count": 677,
      "max": [
        0.9354959726333618,
        0.9175192713737488,
        0.9568035006523132
      ],
      "min": [
        -1.4418363571166992,
        -1.0218628644943237,
        -0.9219611287117004
      ],
      "type": "VEC3"
    },
    {
      "bufferView": 2,
      "byteOffset": 8124,
      "componentType": 5126,
      "count": 677,
      "max": [
        1.0,
        1.0,
        1.0
      ],
      "min": [
        0.0,
        -1.0,
        -1.0
      ],
      "type": "VEC3"
    },
    {
      "bufferView": 1,
      "componentType": 5126,
      "count": 677,
      "max": [
        1.0,
        1.0
      ],
      "min": [
        0.0,
        0.0
      ],
      "type": "VEC2"
    },
    {
      "bufferView": 0,
      "componentType": 5125,
      "count": 1125,
      "type": "SCALAR"
    },
    {
      "bufferView": 2,
      "byteOffset": 16248,
      "componentType": 5126,
      "count": 198,
      "max": [
        1.062194585800171,
        0.9781370759010315,
        1.0174212455749512
      ],
      "min": [
        -0.9378054141998291,
        -1.0218628644943237,
        -0.9825788140296936
      ],
      "type": "VEC3"
    },
    {
      "bufferView": 2,
      "byteOffset": 18624,
      "componentType": 5126,
      "count": 198,
      "max": [
        1.0,
        1.0,
        1.0
      ],
      "min": [
        -1.0,
        -1.0,
        -1.0
      ],
      "type": "VEC3"
    },
    {
      "bufferView": 1,
      "byteOffset": 5416,
      "componentType": 5126,
      "count": 198,
      "max": [
        0.875,
        1.0
      ],
      "min": [
        0.021746471524238586,
        0.0
      ],
      "type": "VEC2"
    },
    {
      "bufferView": 0,
      "byteOffset": 4500,
      "componentType": 5125,
      "count": 348,
      "type": "SCALAR"
    },
    {
      "bufferView": 2,
      "byteOffset": 21000,
      "componentType": 5126,
      "count": 1445,
      "max": [
        1.280971646308899,
        2.6296451091766357,
        0.8956693410873413
      ],
      "min": [
        -1.4418365955352783,
        -0.8300505876541138,
        -0.7174197435379028
      ],
      "type": "VEC3"
    },
    {
      "bufferView": 2,
      "byteOffset": 38340,
      "componentType": 5126,
      "count": 1445,
      "max": [
        1.0,
        0.9880948662757874,
        0.9980648756027222
      ],
      "min": [
        -0.8727401494979858,
        -0.9880959987640381,
        -0.9980650544166565
      ],
      "type": "VEC3"
    },
    {
      "bufferView": 1,
      "byteOffset": 7000,
      "componentType": 5126,
      "count": 1445,
      "max": [
        1.0,
        1.0
      ],
      "min": [
        0.0,
        0.0
      ],
      "type": "VEC2"
    },
    {
      "bufferView": 0,
      "byteOffset": 5892,
      "componentType": 5125,
      "count": 2643,
      "type": "SCALAR"
    },
    {
      "bufferView": 2,
      "byteOffset": 55680,
      "componentType": 5126,
      "count": 100,
      "max": [
        1.1943624019622803,
        -1.0218628644943237,
        0.655751645565033
      ],
      "min": [
        -1.018894910812378,
        -1.2449780702590942,
        -0.6516445875167847
      ],
      "type": "VEC3"
    },
    {
      "bufferView": 2,
      "byteOffset": 56880,
      "componentType": 5126,
      "count": 100,
      "max": [
        0.424946665763855,
        0.4442344307899475,
        0.9981690645217896
      ],
      "min": [
        -0.4190863072872162,
        -1.0,
        -0.9915842413902283
      ],
      "type": "VEC3"
    },
    {
      "bufferView": 1,
      "byteOffset": 18560,
      "componentType": 5126,
      "count": 100,
      "max": [
        1.0,
        1.0
      ],
      "min": [
        2.9802322387695313e-08,
        0.055835917592048645
      ],
      "type": "VEC2"
    },
    {
      "bufferView": 0,
      "byteOffset": 16464,
      "componentType": 5125,
      "count": 156,
      "type": "SCALAR"
    },
    {
      "bufferView": 2,
      "byteOffset": 58080,
      "componentType": 5126,
      "count": 16,
      "max": [
        0.39871349930763245,
        0.8048135638237,
        0.8656838536262512
      ],
      "min": [
        0.39871349930763245,
        -0.33943256735801697,
        -0.8308414816856384
      ],
      "type": "VEC3"
    },
    {
      "bufferView": 2,
      "byteOffset": 58272,
      "componentType": 5126,
      "count": 16,
      "max": [
        1.0,
        0.0,
        -3.924808478217301e-09
      ],
      "min": [
        1.0,
        0.0,
        -3.924808478217301e-09
      ],
      "type": "VEC3"
    },
    {
      "bufferView": 1,
      "byteOffset": 19360,
      "componentType": 5126,
      "count": 16,
      "max": [
        0.625,
        0.75
      ],
      "min": [
        0.375,
        0.5
      ],
      "type": "VEC2"
    },
    {
      "bufferView": 0,
      "byteOffset": 17088,
      "componentType": 5125,
      "count": 42,
      "type": "SCALAR"
    }
  ],
  "asset": {
    "extras": {
      "author": "Green fish (https://sketchfab.com/crescentgamedev)",
      "license": "CC-BY-4.0 (http://creativecommons.org/licenses/by/4.0/)",
      "source": "https://sketchfab.com/3d-models/old-radio-8a6351b439a34b8ba9712849acc39927",
      "title": "Old Radio"
    },
    "generator": "Sketchfab-13.24.0",
    "version": "2.0"
  },
  "bufferViews": [
    {
      "buffer": 0,
      "byteLength": 17256,
      "name": "floatBufferViews",
      "target": 34963
    },
    {
      "buffer": 0,
      "byteLength": 19488,
      "byteOffset": 17256,
      "byteStride": 8,
      "name": "floatBufferViews",
      "target": 34962
    },
    {
      "buffer": 0,
      "byteLength": 58464,
      "byteOffset": 36744,
      "byteStride": 12,
      "name": "floatBufferViews",
      "target": 34962
    }
  ],
  "buffers": [
    {
      "byteLength": 95208,
      "uri": "scene.bin"
    }
  ],
  "materials": [
    {
      "doubleSided": true,
      "name": "Material",
      "pbrMetallicRoughness": {
        "baseColorFactor": [
          0.846873231509858,
          0.6724431569576873,
          0.3712376804741491,
          1.0
        ],
        "metallicFactor": 0.0,
        "roughnessFactor": 0.4
      }
    },
    {
      "doubleSided": true,
      "name": "Material.001",
      "pbrMetallicRoughness": {
        "baseColorFactor": [
          0.15896083506088038,
          0.05612849004960009,
          0.023153366178110396,
          1.0
        ],
        "metallicFactor": 0.0,
        "roughnessFactor": 0.5
      }
    },
    {
      "doubleSided": true,
      "name": "Material.002",
      "pbrMetallicRoughness": {
        "baseColorFactor": [
          0.7379104087727308,
          0.7605245046752922,
          0.7758222183174236,
          1.0
        ],
        "roughnessFactor": 0.5
      }
    },
    {
      "doubleSided": true,
      "name": "Material.004",
      "pbrMetallicRoughness": {
        "baseColorFactor": [
          1.0,
          0.7912979403326302,
          0.4396571738409186,
          1.0
        ],
        "metallicFactor": 0.0,
        "roughnessFactor": 0.5
      }
    },
    {
      "doubleSided": true,
      "name": "Material.005",
      "pbrMetallicRoughness": {
        "baseColorFactor": [
          0.07421356838014963,
          0.07421356838014963,
          0.07421356838014963,
          1.0
        ],
        "metallicFactor": 0.0,
        "roughnessFactor": 0.5
      }
    }
  ],
  "meshes": [
    {
      "name": "Object_0",
      "primitives": [
        {
          "attributes": {
            "NORMAL": 1,
            "POSITION": 0,
            "TEXCOORD_0": 2
          },
          "indices": 3,
          "material": 0,
          "mode": 4
        }
      ]
    },
    {
      "name": "Object_1",
      "primitives": [
        {
          "attributes": {
            "NORMAL": 5,
            "POSITION": 4,
            "TEXCOORD_0": 6
          },
          "indices": 7,
          "material": 1,
          "mode": 4
        }
      ]
    },
    {
      "name": "Object_2",
      "primitives": [
        {
          "attributes": {
            "NORMAL": 9,
            "POSITION": 8,
            "TEXCOORD_0": 10
          },
          "indices": 11,
          "material": 2,
          "mode": 4
        }
      ]
    },
    {
      "name": "Object_3",
      "primitives": [
        {
          "attributes": {
            "NORMAL": 13,
            "POSITION": 12,
            "TEXCOORD_0": 14
          },
          "indices": 15,
          "material": 3,
          "mode": 4
        }
      ]
    },
    {
      "name": "Object_4",
      "primitives": [
        {
          "attributes": {
            "NORMAL": 17,
            "POSITION": 16,
            "TEXCOORD_0": 18
          },
          "indices": 19,
          "material": 4,
          "mode": 4
        }
      ]
    }
  ],
  "nodes": [
    {
      "children": [
        1
      ],
      "matrix": [
        1.0,
        0.0,
        0.0,
        0.0,
        0.0,
        2.220446049250313e-16,
        -1.0,
        0.0,
        0.0,
        1.0,
        2.220446049250313e-16,
        0.0,
        0.0,
        0.0,
        0.0,
        1.0
      ],
      "name": "Sketchfab_model"
    },
    {
      "children": [
        2
      ],
      "name": "root"
    },
    {
      "children": [
        3
      ],
      "matrix": [
        1.0,
        0.0,
        0.0,
        0.0,
        0.0,
        2.220446049250313e-16,
        1.0,
        0.0,
        0.0,
        -1.0,
        2.220446049250313e-16,
        0.0,
        0.0,
        0.0,
        0.0,
        1.0
      ],
      "name": "GLTF_SceneRootNode"
    },
    {
      "children": [
        4,
        5,
        6,
        7,
        8
      ],
      "matrix": [
        0.3744112551212311,
        0.0,
        0.0,
        0.0,
        0.0,
        1.2354915142059326,
        0.0,
        0.0,
        0.0,
        0.0,
        1.9531056880950928,
        0.0,
        0.0,
        0.0,
        0.0,
        1.0
      ],
      "name": "Cube_0"
    },
    {
      "mesh": 0,
      "name": "Object_4"
    },
    {
      "mesh": 1,
      "name": "Object_5"
    },
    {
      "mesh": 2,
      "name": "Object_6"
    },
    {
      "mesh": 3,
      "name": "Object_7"
    },
    {
      "mesh": 4,
      "name": "Object_8"
    }
  ],
  "scene": 0,
  "scenes": [
    {
      "name": "Sketchfab_Scene",
      "nodes": [
        0
      ]
    }
  ]
}
