{
  "accessors": [
    {
      "bufferView": 2,
      "componentType": 5126,
      "count": 2868,
      "max": [
        196.7259979248047,
        944.2376708984375,
        751.070556640625
      ],
      "min": [
        -196.7259979248047,
        -2.1201999187469482,
        -888.92626953125
      ],
      "type": "VEC3"
    },
    {
      "bufferView": 2,
      "byteOffset": 34416,
      "componentType": 5126,
      "count": 2868,
      "max": [
        0.9990699887275696,
        0.9993806481361389,
        0.9970022439956665
      ],
      "min": [
        -0.9990699887275696,
        -0.9983447790145874,
        -0.9946585297584534
      ],
      "type": "VEC3"
    },
    {
      "bufferView": 1,
      "componentType": 5126,
      "count": 2868,
      "max": [
        0.9755290150642395,
        1.0
      ],
      "min": [
        0.0,
        0.28854405879974365
      ],
      "type": "VEC2"
    },
    {
      "bufferView": 0,
      "componentType": 5125,
      "count": 2868,
      "type": "SCALAR"
    }
  ],
  "asset": {
    "extras": {
      "author": "fernandogilmiranda (https://sketchfab.com/fernandogilmiranda)",
      "license": "CC-BY-4.0 (http://creativecommons.org/licenses/by/4.0/)",
      "source": "https://sketchfab.com/3d-models/wolf-lowpoly-24bae7f3e42642ceb3f08a78085d1288",
      "title": "Wolf Lowpoly"
    },
    "generator": "Sketchfab-12.66.0",
    "version": "2.0"
  },
  "bufferViews": [
    {
      "buffer": 0,
      "byteLength": 11472,
      "name": "floatBufferViews",
      "target": 34963
    },
    {
      "buffer": 0,
      "byteLength": 22944,
      "byteOffset": 11472,
      "byteStride": 8,
      "name": "floatBufferViews",
      "target": 34962
    },
    {
      "buffer": 0,
      "byteLength": 68832,
      "byteOffset": 34416,
      "byteStride": 12,
      "name": "floatBufferViews",
      "target": 34962
    }
  ],
  "buffers": [
    {
      "byteLength": 103248,
      "uri": "scene.bin"
    }
  ],
  "materials": [
    {
      "doubleSided": true,
      "name": "Material",
      "pbrMetallicRoughness": {
        "baseColorFactor": [
          0.8,
          0.8,
          0.8,
          1.0
        ],
        "metallicFactor": 0.0,
        "roughnessFactor": 0.6
      }
    }
  ],
  "meshes": [
    {
      "name": "wolf_Material_0",
      "primitives": [
        {
          "attributes": {
            "NORMAL": 1,
            "POSITION": 0,
            "TEXCOORD_0": 2
          },
          "indices": 3,
          "material": 0,
          "mode": 4
        }
      ]
    }
  ],
  "nodes": [
    {
      "children": [
        1
      ],
      "matrix": [
        1.0341768264770508,
        0.0,
        0.0,
        0.0,
        0.0,
        2.296333848577194e-16,
        -1.0341768264770508,
        0.0,
        0.0,
        1.0341768264770508,
        2.296333848577194e-16,
        0.0,
        0.0,
        0.0,
        0.0,
        1.0
      ],
      "name": "Sketchfab_model"
    },
    {
      "children": [
        2
      ],
      "matrix": [
        1.0,
        0.0,
        0.0,
        0.0,
        0.0,
        0.0,
        1.0,
        0.0,
        0.0,
        -1.0,
        0.0,
        0.0,
        0.0,
        0.0,
        0.0,
        1.0
      ],
      "name": "752cfc8e13e440bcaae116cf7f82ed7f.fbx"
    },
    {
      "children": [
        3
      ],
      "name": "RootNode"
    },
    {
      "children": [
        4
      ],
      "name": "wolf"
    },
    {
      "mesh": 0,
      "name": "wolf_Material_0"
    }
  ],
  "scene": 0,
  "scenes": [
    {
      "name": "Sketchfab_Scene",
      "nodes": [
        0
      ]
    }
  ]
}
