{
  "accessors": [
    {
      "bufferView": 2,
      "componentType": 5126,
      "count": 758,
      "max": [
        0.5168328285217285,
        45.989540100097656,
        0.5118359327316284
      ],
      "min": [
        -0.5168328285217285,
        -0.5,
        -0.5118359327316284
      ],
      "type": "VEC3"
    },
    {
      "bufferView": 2,
      "byteOffset": 9096,
      "componentType": 5126,
      "count": 758,
      "max": [
        0.9999944567680359,
        1.0,
        1.0
      ],
      "min": [
        -0.9999944567680359,
        -1.0,
        -1.0
      ],
      "type": "VEC3"
    },
    {
      "bufferView": 3,
      "componentType": 5126,
      "count": 758,
      "max": [
        0.9792288541793823,
        0.9993059039115906,
        0.9999639391899109,
        1.0
      ],
      "min": [
        -0.8172868490219116,
        -0.9979256391525269,
        -0.9999915957450867,
        1.0
      ],
      "type": "VEC4"
    },
    {
      "bufferView": 1,
      "componentType": 5126,
      "count": 758,
      "max": [
        0.9895809888839722,
        0.9420434832572937
      ],
      "min": [
        0.03753597289323807,
        2.735876478254795e-05
      ],
      "type": "VEC2"
    },
    {
      "bufferView": 0,
      "componentType": 5125,
      "count": 2664,
      "type": "SCALAR"
    },
    {
      "bufferView": 2,
      "byteOffset": 18192,
      "componentType": 5126,
      "count": 640,
      "max": [
        0.5168331265449524,
        16.868179321289063,
        0.511836051940918
      ],
      "min": [
        -0.5168328285217285,
        -2.0338897705078125,
        -0.5118359327316284
      ],
      "type": "VEC3"
    },
    {
      "bufferView": 2,
      "byteOffset": 25872,
      "componentType": 5126,
      "count": 640,
      "max": [
        0.9999944567680359,
        1.0,
        1.0
      ],
      "min": [
        -0.9999944567680359,
        -1.0,
        -1.0
      ],
      "type": "VEC3"
    },
    {
      "bufferView": 3,
      "byteOffset": 12128,
      "componentType": 5126,
      "count": 640,
      "max": [
        0.9999707937240601,
        0.9999534487724304,
        0.9998025298118591,
        1.0
      ],
      "min": [
        -0.4126625657081604,
        -0.999938428401947,
        -0.999942421913147,
        1.0
      ],
      "type": "VEC4"
    },
    {
      "bufferView": 1,
      "byteOffset": 6064,
      "componentType": 5126,
      "count": 640,
      "max": [
        0.9996969103813171,
        0.9988604784011841
      ],
      "min": [
        0.0,
        0.0
      ],
      "type": "VEC2"
    },
    {
      "bufferView": 0,
      "byteOffset": 10656,
      "componentType": 5125,
      "count": 1536,
      "type": "SCALAR"
    },
    {
      "bufferView": 2,
      "byteOffset": 33552,
      "componentType": 5126,
      "count": 632,
      "max": [
        9.927131652832031,
        6.501130104064941,
        6.518811225891113
      ],
      "min": [
        0.6303997039794922,
        5.067203044891357,
        -6.524518013000488
      ],
      "type": "VEC3"
    },
    {
      "bufferView": 2,
      "byteOffset": 41136,
      "componentType": 5126,
      "count": 632,
      "max": [
        0.9998381733894348,
        0.9997188448905945,
        0.9999496340751648
      ],
      "min": [
        -0.9997718930244446,
        -0.999718427658081,
        -0.9999445676803589
      ],
      "type": "VEC3"
    },
    {
      "bufferView": 3,
      "byteOffset": 22368,
      "componentType": 5126,
      "count": 632,
      "max": [
        0.9999997019767761,
        0.9999871253967285,
        0.971111536026001,
        1.0
      ],
      "min": [
        -0.4510204792022705,
        -0.9999881386756897,
        -0.9999459385871887,
        1.0
      ],
      "type": "VEC4"
    },
    {
      "bufferView": 1,
      "byteOffset": 11184,
      "componentType": 5126,
      "count": 632,
      "max": [
        0.9991710186004639,
        0.4934561848640442
      ],
      "min": [
        0.021449148654937744,
        2.8133392333984375e-05
      ],
      "type": "VEC2"
    },
    {
      "bufferView": 0,
      "byteOffset": 16800,
      "componentType": 5125,
      "count": 1536,
      "type": "SCALAR"
    },
    {
      "bufferView": 2,
      "byteOffset": 48720,
      "componentType": 5126,
      "count": 748,
      "max": [
        9.679533004760742,
        5.9338531494140625,
        6.220911026000977
      ],
      "min": [
        0.845731258392334,
        0.015688374638557434,
        -6.220911026000977
      ],
      "type": "VEC3"
    },
    {
      "bufferView": 2,
      "byteOffset": 57696,
      "componentType": 5126,
      "count": 748,
      "max": [
        0.9999972581863403,
        1.0,
        1.0
      ],
      "min": [
        -0.9999972581863403,
        -1.0,
        -1.0
      ],
      "type": "VEC3"
    },
    {
      "bufferView": 3,
      "byteOffset": 32480,
      "componentType": 5126,
      "count": 748,
      "max": [
        1.0,
        1.0,
        1.0,
        1.0
      ],
      "min": [
        -0.6929485201835632,
        -1.0,
        -1.0,
        1.0
      ],
      "type": "VEC4"
    },
    {
      "bufferView": 1,
      "byteOffset": 16240,
      "componentType": 5126,
      "count": 748,
      "max": [
        0.9947620034217834,
        1.0
      ],
      "min": [
        0.0,
        1.043081283569336e-05
      ],
      "type": "VEC2"
    },
    {
      "bufferView": 0,
      "byteOffset": 22944,
      "componentType": 5125,
      "count": 2664,
      "type": "SCALAR"
    }
  ],
  "asset": {
    "extras": {
      "author": "Cozmoth (https://sketchfab.com/Cozmoth)",
      "license": "CC-BY-4.0 (http://creativecommons.org/licenses/by/4.0/)",
      "source": "https://sketchfab.com/3d-models/2-boxes-3f920e8fd10c4664b5bd1dea3cf7606e",
      "title": "2 boxes"
    },
    "generator": "Sketchfab-14.69.0",
    "version": "2.0"
  },
  "bufferViews": [
    {
      "buffer": 0,
      "byteLength": 33600,
      "name": "floatBufferViews",
      "target": 34963
    },
    {
      "buffer": 0,
      "byteLength": 22224,
      "byteOffset": 33600,
      "byteStride": 8,
      "name": "floatBufferViews",
      "target": 34962
    },
    {
      "buffer": 0,
      "byteLength": 66672,
      "byteOffset": 55824,
      "byteStride": 12,
      "name": "floatBufferViews",
      "target": 34962
    },
    {
      "buffer": 0,
      "byteLength": 44448,
      "byteOffset": 122496,
      "byteStride": 16,
      "name": "floatBufferViews",
      "target": 34962
    }
  ],
  "buffers": [
    {
      "byteLength": 166944,
      "uri": "scene.bin"
    }
  ],
  "images": [
    {
      "uri": "textures/material_baseColor.png"
    },
    {
      "uri": "textures/material_metallicRoughness.png"
    },
    {
      "uri": "textures/material_normal.png"
    },
    {
      "uri": "textures/material_1_baseColor.png"
    },
    {
      "uri": "textures/material_1_metallicRoughness.png"
    },
    {
      "uri": "textures/material_1_normal.png"
    }
  ],
  "materials": [
    {
      "doubleSided": true,
      "name": "material",
      "normalTexture": {
        "index": 2
      },
      "occlusionTexture": {
        "index": 1
      },
      "pbrMetallicRoughness": {
        "baseColorTexture": {
          "index": 0
        },
        "metallicRoughnessTexture": {
          "index": 1
        }
      }
    },
    {
      "doubleSided": true,
      "name": "material_1",
      "normalTexture": {
        "index": 5
      },
      "occlusionTexture": {
        "index": 4
      },
      "pbrMetallicRoughness": {
        "baseColorTexture": {
          "index": 3
        },
        "metallicRoughnessTexture": {
          "index": 4
        }
      }
    }
  ],
  "meshes": [
    {
      "name": "pCube2_box_0",
      "primitives": [
        {
          "attributes": {
            "NORMAL": 1,
            "POSITION": 0,
            "TANGENT": 2,
            "TEXCOORD_0": 3
          },
          "indices": 4,
          "material": 0,
          "mode": 4
        }
      ]
    },
    {
      "name": "pCube1_lid_0",
      "primitives": [
        {
          "attributes": {
            "NORMAL": 6,
            "POSITION": 5,
            "TANGENT": 7,
            "TEXCOORD_0": 8
          },
          "indices": 9,
          "material": 1,
          "mode": 4
        }
      ]
    },
    {
      "name": "pCube4_lid_0",
      "primitives": [
        {
          "attributes": {
            "NORMAL": 11,
            "POSITION": 10,
            "TANGENT": 12,
            "TEXCOORD_0": 13
          },
          "indices": 14,
          "material": 1,
          "mode": 4
        }
      ]
    },
    {
      "name": "pCube4_box_0",
      "primitives": [
        {
          "attributes": {
            "NORMAL": 16,
            "POSITION": 15,
            "TANGENT": 17,
            "TEXCOORD_0": 18
          },
          "indices": 19,
          "material": 0,
          "mode": 4
        }
      ]
    }
  ],
  "nodes": [
    {
      "children": [
        1
      ],
      "matrix": [
        1.0,
        0.0,
        0.0,
        0.0,
        0.0,
        2.220446049250313e-16,
        -1.0,
        0.0,
        0.0,
        1.0,
        2.220446049250313e-16,
        0.0,
        0.0,
        0.0,
        0.0,
        1.0
      ],
      "name": "Sketchfab_model"
    },
    {
      "children": [
        2
      ],
      "matrix": [
        0.009999999776482582,
        0.0,
        0.0,
        0.0,
        0.0,
        0.0,
        0.009999999776482582,
        0.0,
        0.0,
        -0.009999999776482582,
        0.0,
        0.0,
        0.0,
        0.0,
        0.0,
        1.0
      ],
      "name": "91eea465d61047f6b391150159a1d680.fbx"
    },
    {
      "children": [
        3,
        8
      ],
      "name": "RootNode"
    },
    {
      "children": [
        4,
        6
      ],
      "matrix": [
        1.0,
        0.0,
        0.0,
        0.0,
        0.0,
        1.0,
        0.0,
        0.0,
        0.0,
        0.0,
        1.0,
        0.0,
        -12.342050552368164,
        0.0,
        0.0,
        1.0
      ],
      "name": "group1"
    },
    {
      "children": [
        5
      ],
      "matrix": [
        8.546091079711914,
        0.0,
        0.0,
        0.0,
        0.0,
        0.12730099260807037,
        0.0,
        0.0,
        0.0,
        0.0,
        12.154111862182617,
        0.0,
        6.530871391296387,
        0.07933887094259262,
        0.0,
        1.0
      ],
      "name": "pCube2"
    },
    {
      "mesh": 0,
      "name": "pCube2_box_0"
    },
    {
      "children": [
        7
      ],
      "matrix": [
        -3.7655359640748705,
        -1.8089825507392703,
        7.890121811750513,
        0.0,
        0.04266518839552663,
        -0.04325014550435079,
        0.010445788385717563,
        0.0,
        7.436948011344763,
        8.673888018872118,
        5.5379382366196515,
        0.0,
        1.5803134441375732,
        5.638314247131348,
        -5.040073394775391,
        1.0
      ],
      "name": "pCube1"
    },
    {
      "mesh": 1,
      "name": "pCube1_lid_0"
    },
    {
      "children": [
        9,
        10
      ],
      "name": "pCube4"
    },
    {
      "mesh": 2,
      "name": "pCube4_lid_0"
    },
    {
      "mesh": 3,
      "name": "pCube4_box_0"
    }
  ],
  "samplers": [
    {
      "magFilter": 9729,
      "minFilter": 9987,
      "wrapS": 10497,
      "wrapT": 10497
    }
  ],
  "scene": 0,
  "scenes": [
    {
      "name": "Sketchfab_Scene",
      "nodes": [
        0
      ]
    }
  ],
  "textures": [
    {
      "sampler": 0,
      "source": 0
    },
    {
      "sampler": 0,
      "source": 1
    },
    {
      "sampler": 0,
      "source": 2
    },
    {
      "sampler": 0,
      "source": 3
    },
    {
      "sampler": 0,
      "source": 4
    },
    {
      "sampler": 0,
      "source": 5
    }
  ]
}
