{
  "accessors": [
    {
      "bufferView": 2,
      "componentType": 5126,
      "count": 23581,
      "max": [
        1.944943904876709,
        5.896332740783691,
        7.0311455726623535
      ],
      "min": [
        -1.9429410696029663,
        -6.167029857635498,
        -1.5258788721439487e-07
      ],
      "type": "VEC3"
    },
    {
      "bufferView": 2,
      "byteOffset": 282972,
      "componentType": 5126,
      "count": 23581,
      "max": [
        1.0,
        1.0,
        1.0
      ],
      "min": [
        -1.0,
        -1.0,
        -1.0
      ],
      "type": "VEC3"
    },
    {
      "bufferView": 1,
      "componentType": 5126,
      "count": 23581,
      "max": [
        0.9992721676826477,
        0.9981613159179688
      ],
      "min": [
        0.0003037452697753906,
        0.0009558200836181641
      ],
      "type": "VEC2"
    },
    {
      "bufferView": 1,
      "byteOffset": 188648,
      "componentType": 5126,
      "count": 23581,
      "max": [
        0.9992721676826477,
        0.9981613159179688
      ],
      "min": [
        0.0003037452697753906,
        0.0009558200836181641
      ],
      "type": "VEC2"
    },
    {
      "bufferView": 1,
      "byteOffset": 377296,
      "componentType": 5126,
      "count": 23581,
      "max": [
        0.9992721676826477,
        0.9981613159179688
      ],
      "min": [
        0.0003037452697753906,
        0.0009558200836181641
      ],
      "type": "VEC2"
    },
    {
      "bufferView": 0,
      "componentType": 5125,
      "count": 57666,
      "type": "SCALAR"
    },
    {
      "bufferView": 2,
      "byteOffset": 565944,
      "componentType": 5126,
      "count": 4428,
      "max": [
        1.6997328996658325,
        3.967316150665283,
        2.968883514404297
      ],
      "min": [
        -1.7090898752212524,
        -4.9709672927856445,
        1.079060435295105
      ],
      "type": "VEC3"
    },
    {
      "bufferView": 2,
      "byteOffset": 619080,
      "componentType": 5126,
      "count": 4428,
      "max": [
        1.0,
        1.0,
        1.0
      ],
      "min": [
        -1.0,
        -1.0,
        -1.0
      ],
      "type": "VEC3"
    },
    {
      "bufferView": 1,
      "byteOffset": 565944,
      "componentType": 5126,
      "count": 4428,
      "max": [
        0.9986367225646973,
        0.998571515083313
      ],
      "min": [
        0.0013255402445793152,
        0.0014797423500567675
      ],
      "type": "VEC2"
    },
    {
      "bufferView": 1,
      "byteOffset": 601368,
      "componentType": 5126,
      "count": 4428,
      "max": [
        0.9986367225646973,
        0.998571515083313
      ],
      "min": [
        0.0013255402445793152,
        0.0014797423500567675
      ],
      "type": "VEC2"
    },
    {
      "bufferView": 1,
      "byteOffset": 636792,
      "componentType": 5126,
      "count": 4428,
      "max": [
        0.9986367225646973,
        0.998571515083313
      ],
      "min": [
        0.0013255402445793152,
        0.0014797423500567675
      ],
      "type": "VEC2"
    },
    {
      "bufferView": 0,
      "byteOffset": 230664,
      "componentType": 5125,
      "count": 10335,
      "type": "SCALAR"
    },
    {
      "bufferView": 2,
      "byteOffset": 672216,
      "componentType": 5126,
      "count": 484,
      "max": [
        1.7458021640777588,
        3.997732162475586,
        3.624951124191284
      ],
      "min": [
        -1.7509263753890991,
        -4.959595203399658,
        1.6269893646240234
      ],
      "type": "VEC3"
    },
    {
      "bufferView": 2,
      "byteOffset": 678024,
      "componentType": 5126,
      "count": 484,
      "max": [
        1.0,
        0.9916245341300964,
        0.9388020634651184
      ],
      "min": [
        -1.0,
        -1.0,
        -0.42568525671958923
      ],
      "type": "VEC3"
    },
    {
      "bufferView": 1,
      "byteOffset": 672216,
      "componentType": 5126,
      "count": 484,
      "max": [
        0.9962351322174072,
        0.9972137212753296
      ],
      "min": [
        0.009998902678489685,
        0.00853121280670166
      ],
      "type": "VEC2"
    },
    {
      "bufferView": 1,
      "byteOffset": 676088,
      "componentType": 5126,
      "count": 484,
      "max": [
        0.9962351322174072,
        0.9972137212753296
      ],
      "min": [
        0.009998902678489685,
        0.00853121280670166
      ],
      "type": "VEC2"
    },
    {
      "bufferView": 1,
      "byteOffset": 679960,
      "componentType": 5126,
      "count": 484,
      "max": [
        0.9962351322174072,
        0.9972137212753296
      ],
      "min": [
        0.009998902678489685,
        0.00853121280670166
      ],
      "type": "VEC2"
    },
    {
      "bufferView": 0,
      "byteOffset": 272004,
      "componentType": 5125,
      "count": 1248,
      "type": "SCALAR"
    }
  ],
  "asset": {
    "extras": {
      "author": "usedm (https://sketchfab.com/usedm)",
      "license": "CC-BY-4.0 (http://creativecommons.org/licenses/by/4.0/)",
      "source": "https://sketchfab.com/3d-models/boat-dca8ae34481148d0ab55eb18abd3fdf7",
      "title": "Boat"
    },
    "generator": "Sketchfab-16.85.0",
    "version": "2.0"
  },
  "bufferViews": [
    {
      "buffer": 0,
      "byteLength": 276996,
      "name": "floatBufferViews",
      "target": 34963
    },
    {
      "buffer": 0,
      "byteLength": 683832,
      "byteOffset": 276996,
      "byteStride": 8,
      "name": "floatBufferViews",
      "target": 34962
    },
    {
      "buffer": 0,
      "byteLength": 683832,
      "byteOffset": 960828,
      "byteStride": 12,
      "name": "floatBufferViews",
      "target": 34962
    }
  ],
  "buffers": [
    {
      "byteLength": 1644660,
      "uri": "scene.bin"
    }
  ],
  "images": [
    {
      "uri": "textures/Material_70_baseColor.png"
    },
    {
      "uri": "textures/Material_71_baseColor.png"
    },
    {
      "uri": "textures/Material_72_baseColor.png"
    }
  ],
  "materials": [
    {
      "doubleSided": true,
      "name": "Material_70",
      "pbrMetallicRoughness": {
        "baseColorTexture": {
          "index": 0
        },
        "metallicFactor": 0.0,
        "roughnessFactor": 0.8929713596497552
      }
    },
    {
      "doubleSided": true,
      "name": "Material_71",
      "pbrMetallicRoughness": {
        "baseColorTexture": {
          "index": 1
        },
        "metallicFactor": 0.0,
        "roughnessFactor": 0.8929713596497552
      }
    },
    {
      "alphaMode": "BLEND",
      "doubleSided": true,
      "name": "Material_72",
      "pbrMetallicRoughness": {
        "baseColorTexture": {
          "index": 2
        },
        "metallicFactor": 0.0,
        "roughnessFactor": 0.8929713596497552
      }
    }
  ],
  "meshes": [
    {
      "name": "Object001_Material #70_0",
      "primitives": [
        {
          "attributes": {
            "NORMAL": 1,
            "POSITION": 0,
            "TEXCOORD_0": 2,
            "TEXCOORD_1": 3,
            "TEXCOORD_2": 4
          },
          "indices": 5,
          "material": 0,
          "mode": 4
        }
      ]
    },
    {
      "name": "Object002_Material #71_0",
      "primitives": [
        {
          "attributes": {
            "NORMAL": 7,
            "POSITION": 6,
            "TEXCOORD_0": 8,
            "TEXCOORD_1": 9,
            "TEXCOORD_2": 10
          },
          "indices": 11,
          "material": 1,
          "mode": 4
        }
      ]
    },
    {
      "name": "Object003_Material #72_0",
      "primitives": [
        {
          "attributes": {
            "NORMAL": 13,
            "POSITION": 12,
            "TEXCOORD_0": 14,
            "TEXCOORD_1": 15,
            "TEXCOORD_2": 16
          },
          "indices": 17,
          "material": 2,
          "mode": 4
        }
      ]
    }
  ],
  "nodes": [
    {
      "children": [
        1
      ],
      "matrix": [
        1.0,
        0.0,
        0.0,
        0.0,
        0.0,
        2.220446049250313e-16,
        -1.0,
        0.0,
        0.0,
        1.0,
        2.220446049250313e-16,
        0.0,
        0.0,
        0.0,
        0.0,
        1.0
      ],
      "name": "Sketchfab_model"
    },
    {
      "children": [
        2
      ],
      "matrix": [
        0.02539999969303608,
        0.0,
        0.0,
        0.0,
        0.0,
        0.0,
        0.02539999969303608,
        0.0,
        0.0,
        -0.02539999969303608,
        0.0,
        0.0,
        0.0,
        0.0,
        0.0,
        1.0
      ],
      "name": "model.FBX"
    },
    {
      "children": [
        3,
        5,
        7
      ],
      "name": "RootNode"
    },
    {
      "children": [
        4
      ],
      "matrix": [
        1.720921728425105e-08,
        0.0,
        -0.3937009871006009,
        0.0,
        -0.3937009871005981,
        4.69328147928656e-08,
        -1.7209217349815434e-08,
        0.0,
        4.6932814902139575e-08,
        0.3937009871005985,
        2.0106411432050003e-15,
        0.0,
        0.0,
        0.0,
        0.0,
        1.0
      ],
      "name": "Object001"
    },
    {
      "mesh": 0,
      "name": "Object001_Material #70_0"
    },
    {
      "children": [
        6
      ],
      "matrix": [
        1.720921728425105e-08,
        0.0,
        -0.3937009871006009,
        0.0,
        -0.3937009871005981,
        4.69328147928656e-08,
        -1.7209217349815434e-08,
        0.0,
        4.6932814902139575e-08,
        0.3937009871005985,
        2.0106411432050003e-15,
        0.0,
        0.0,
        0.0,
        0.0,
        1.0
      ],
      "name": "Object002"
    },
    {
      "mesh": 1,
      "name": "Object002_Material #71_0"
    },
    {
      "children": [
        8
      ],
      "matrix": [
        1.720921728425105e-08,
        0.0,
        -0.3937009871006009,
        0.0,
        -0.3937009871005981,
        4.69328147928656e-08,
        -1.7209217349815434e-08,
        0.0,
        4.6932814902139575e-08,
        0.3937009871005985,
        2.0106411432050003e-15,
        0.0,
        0.0,
        0.0,
        0.0,
        1.0
      ],
      "name": "Object003"
    },
    {
      "mesh": 2,
      "name": "Object003_Material #72_0"
    }
  ],
  "samplers": [
    {
      "magFilter": 9729,
      "minFilter": 9987,
      "wrapS": 10497,
      "wrapT": 10497
    }
  ],
  "scene": 0,
  "scenes": [
    {
      "name": "Sketchfab_Scene",
      "nodes": [
        0
      ]
    }
  ],
  "textures": [
    {
      "sampler": 0,
      "source": 0
    },
    {
      "sampler": 0,
      "source": 1
    },
    {
      "sampler": 0,
      "source": 2
    }
  ]
}
